<svg width="16" height="16" viewBox="0 0 16 16" fill="none" xmlns="http://www.w3.org/2000/svg">
<path opacity="0.4" d="M11.18 12.6532H4.81998C4.53998 12.6532 4.28664 12.4732 4.19331 12.2132L1.41998 4.44655C1.19998 3.82655 1.90664 3.29988 2.43331 3.67988L5.09998 5.58655C5.45331 5.83988 5.95998 5.68655 6.11331 5.27988L7.37331 1.91988C7.58664 1.33988 8.40664 1.33988 8.61998 1.91988L9.87998 5.27988C10.0333 5.69321 10.5333 5.83988 10.8933 5.58655L13.56 3.67988C14.0933 3.29988 14.7933 3.83321 14.5733 4.44655L11.8 12.2132C11.7133 12.4732 11.46 12.6532 11.18 12.6532Z" fill="white"/>
<path d="M11.3334 14.6665H4.66669C4.39335 14.6665 4.16669 14.4399 4.16669 14.1665C4.16669 13.8932 4.39335 13.6665 4.66669 13.6665H11.3334C11.6067 13.6665 11.8334 13.8932 11.8334 14.1665C11.8334 14.4399 11.6067 14.6665 11.3334 14.6665Z" fill="white"/>
<path d="M9.66665 9.83321H6.33331C6.05998 9.83321 5.83331 9.60654 5.83331 9.33321C5.83331 9.05987 6.05998 8.83321 6.33331 8.83321H9.66665C9.93998 8.83321 10.1666 9.05987 10.1666 9.33321C10.1666 9.60654 9.93998 9.83321 9.66665 9.83321Z" fill="white"/>
</svg>
