<svg width="32" height="32" viewBox="0 0 32 32" fill="none" xmlns="http://www.w3.org/2000/svg">
<rect x="0.5" y="0.5" width="31" height="31" rx="15.5" stroke="#EA4B0B" stroke-opacity="0.2"/>
<path d="M15.9999 19.26C15.8099 19.26 15.6199 19.19 15.4699 19.04L12.4699 16.04C12.1799 15.75 12.1799 15.27 12.4699 14.98C12.7599 14.69 13.2399 14.69 13.5299 14.98L15.9999 17.45L18.4699 14.98C18.7599 14.69 19.2399 14.69 19.5299 14.98C19.8199 15.27 19.8199 15.75 19.5299 16.04L16.5299 19.04C16.3799 19.19 16.1899 19.26 15.9999 19.26Z" fill="#EA4B0B"/>
<path d="M16 19.26C15.59 19.26 15.25 18.92 15.25 18.51V10.51C15.25 10.1 15.59 9.76001 16 9.76001C16.41 9.76001 16.75 10.1 16.75 10.51V18.51C16.75 18.93 16.41 19.26 16 19.26Z" fill="#EA4B0B"/>
<path d="M15.9999 22.23C13.8899 22.23 11.7699 21.89 9.75995 21.22C9.36995 21.09 9.15995 20.66 9.28995 20.27C9.41995 19.88 9.83994 19.66 10.2399 19.8C13.9599 21.04 18.0499 21.04 21.7699 19.8C22.1599 19.67 22.5899 19.88 22.7199 20.27C22.8499 20.66 22.6399 21.09 22.2499 21.22C20.2299 21.9 18.1099 22.23 15.9999 22.23Z" fill="#EA4B0B"/>
</svg>
