<svg width="16" height="16" viewBox="0 0 16 16" fill="none" xmlns="http://www.w3.org/2000/svg">
<path opacity="0.4" d="M10.7933 1.33321H5.21331C2.77998 1.33321 1.33331 2.77987 1.33331 5.20654V10.7865C1.33331 13.2132 2.77998 14.6599 5.20664 14.6599H10.7866C13.2133 14.6599 14.66 13.2132 14.66 10.7865V5.20654C14.6666 2.77987 13.22 1.33321 10.7933 1.33321Z" fill="white"/>
<path d="M7.64665 10.0265C7.69331 10.0732 7.74665 10.1065 7.80665 10.1332C7.86665 10.1599 7.93331 10.1732 7.99998 10.1732C8.06665 10.1732 8.12665 10.1599 8.19331 10.1332C8.25331 10.1065 8.30665 10.0732 8.35331 10.0265L10.3533 8.02654C10.5466 7.83321 10.5466 7.51321 10.3533 7.31988C10.16 7.12654 9.83998 7.12654 9.64665 7.31988L8.49998 8.46654V4.33987C8.49998 4.06654 8.27331 3.83987 7.99998 3.83987C7.72665 3.83987 7.49998 4.06654 7.49998 4.33987V8.46654L6.35331 7.31988C6.15998 7.12654 5.83998 7.12654 5.64665 7.31988C5.45331 7.51321 5.45331 7.83321 5.64665 8.02654L7.64665 10.0265Z" fill="white"/>
<path d="M12.4733 10.8532C12.3866 10.5932 12.1066 10.4532 11.84 10.5399C9.35998 11.3665 6.63331 11.3665 4.15331 10.5399C3.89331 10.4532 3.60664 10.5932 3.51998 10.8532C3.43331 11.1132 3.57331 11.3999 3.83331 11.4865C5.17331 11.9332 6.57998 12.1599 7.99331 12.1599C9.40664 12.1599 10.8133 11.9332 12.1533 11.4865C12.42 11.3932 12.56 11.1132 12.4733 10.8532Z" fill="white"/>
</svg>
