<svg width="16" height="16" viewBox="0 0 16 16" fill="none" xmlns="http://www.w3.org/2000/svg">
<path d="M3.43335 14.6665C3.16002 14.6665 2.93335 14.4399 2.93335 14.1665V1.83321C2.93335 1.55988 3.16002 1.33321 3.43335 1.33321C3.70668 1.33321 3.93335 1.55988 3.93335 1.83321V14.1665C3.93335 14.4399 3.70668 14.6665 3.43335 14.6665Z" fill="white"/>
<path opacity="0.4" d="M12.0133 8.21988L11.2 7.40655C11.0067 7.23988 10.8933 6.99321 10.8867 6.71988C10.8733 6.41988 10.9933 6.11988 11.2133 5.89988L12.0133 5.09988C12.7067 4.40655 12.9667 3.73988 12.7467 3.21321C12.5333 2.69321 11.8733 2.40655 10.9 2.40655H3.43333C3.29333 2.41321 3.17999 2.52655 3.17999 2.66655V10.6665C3.17999 10.8065 3.29333 10.9199 3.43333 10.9199H10.9C11.86 10.9199 12.5067 10.6265 12.7267 10.0999C12.9467 9.56655 12.6933 8.90655 12.0133 8.21988Z" fill="white"/>
</svg>
