<svg width="44" height="44" viewBox="0 0 44 44" fill="none" xmlns="http://www.w3.org/2000/svg">
<rect width="44" height="44" rx="22" fill="#EA4B0B"/>
<path opacity="0.4" d="M22 32C27.5228 32 32 27.5228 32 22C32 16.4772 27.5228 12 22 12C16.4772 12 12 16.4772 12 22C12 27.5228 16.4772 32 22 32Z" fill="white"/>
<path d="M25.75 20.73V20C25.75 19.07 25.75 16.25 22 16.25C18.25 16.25 18.25 19.07 18.25 20V20.73C17.03 21 16.62 21.79 16.62 23.5V24.5C16.62 26.7 17.3 27.38 19.5 27.38H24.5C26.7 27.38 27.38 26.7 27.38 24.5V23.5C27.38 21.79 26.97 21 25.75 20.73ZM22 25.1C21.39 25.1 20.9 24.61 20.9 24C20.9 23.39 21.39 22.9 22 22.9C22.61 22.9 23.1 23.39 23.1 24C23.1 24.61 22.61 25.1 22 25.1ZM24.25 20.62H19.75V20C19.75 18.54 20.11 17.75 22 17.75C23.89 17.75 24.25 18.54 24.25 20V20.62Z" fill="white"/>
</svg>
