<svg width="44" height="44" viewBox="0 0 44 44" fill="none" xmlns="http://www.w3.org/2000/svg">
<rect width="44" height="44" rx="22" fill="#EA4B0B"/>
<path opacity="0.4" d="M29.07 29.82C28.88 29.82 28.69 29.7499 28.54 29.5999C28.25 29.3099 28.25 28.8299 28.54 28.5399C32.15 24.9299 32.15 19.06 28.54 15.46C28.25 15.17 28.25 14.69 28.54 14.4C28.83 14.11 29.31 14.11 29.6 14.4C33.79 18.59 33.79 25.4099 29.6 29.5999C29.45 29.7499 29.26 29.82 29.07 29.82Z" fill="white"/>
<path opacity="0.4" d="M14.93 29.82C14.74 29.82 14.55 29.7499 14.4 29.5999C10.21 25.4099 10.21 18.59 14.4 14.4C14.69 14.11 15.17 14.11 15.46 14.4C15.75 14.69 15.75 15.17 15.46 15.46C11.85 19.07 11.85 24.9399 15.46 28.5399C15.75 28.8299 15.75 29.3099 15.46 29.5999C15.31 29.7499 15.12 29.82 14.93 29.82Z" fill="white"/>
<path opacity="0.4" d="M22 32.71C20.75 32.7 19.56 32.5 18.45 32.11C18.06 31.97 17.85 31.54 17.99 31.15C18.13 30.76 18.55 30.55 18.95 30.69C19.91 31.02 20.93 31.2 22.01 31.2C23.08 31.2 24.11 31.02 25.06 30.69C25.45 30.56 25.88 30.76 26.02 31.15C26.16 31.54 25.95 31.97 25.56 32.11C24.44 32.5 23.25 32.71 22 32.71Z" fill="white"/>
<path opacity="0.4" d="M25.3 13.34C25.22 13.34 25.13 13.33 25.05 13.3C24.09 12.97 23.06 12.79 21.99 12.79C20.92 12.79 19.9 12.97 18.94 13.3C18.55 13.43 18.12 13.23 17.98 12.84C17.84 12.45 18.05 12.02 18.44 11.88C19.55 11.49 20.75 11.29 21.99 11.29C23.23 11.29 24.43 11.49 25.54 11.88C25.93 12.02 26.14 12.45 26 12.84C25.9 13.15 25.61 13.34 25.3 13.34Z" fill="white"/>
<path d="M18.74 22V20.33C18.74 18.25 20.21 17.4 22.01 18.44L23.46 19.28L24.91 20.12C26.71 21.16 26.71 22.86 24.91 23.9L23.46 24.74L22.01 25.58C20.21 26.62 18.74 25.77 18.74 23.69V22Z" fill="white"/>
</svg>
