<svg width="54" height="20" viewBox="0 0 54 20" fill="none" xmlns="http://www.w3.org/2000/svg">
<rect width="54" height="20" rx="10" fill="#FD9A01"/>
<path d="M12.776 9.192C12.776 9.51733 12.7013 9.816 12.552 10.088C12.4027 10.3547 12.1733 10.5707 11.864 10.736C11.5547 10.9013 11.1707 10.984 10.712 10.984H9.864V13H8.496V7.384H10.712C11.16 7.384 11.5387 7.46133 11.848 7.616C12.1573 7.77067 12.3893 7.984 12.544 8.256C12.6987 8.528 12.776 8.84 12.776 9.192ZM10.608 9.896C10.8693 9.896 11.064 9.83467 11.192 9.712C11.32 9.58933 11.384 9.416 11.384 9.192C11.384 8.968 11.32 8.79467 11.192 8.672C11.064 8.54933 10.8693 8.488 10.608 8.488H9.864V9.896H10.608ZM16.3522 13L15.1842 10.88H14.8562V13H13.4882V7.384H15.7842C16.2269 7.384 16.6029 7.46133 16.9122 7.616C17.2269 7.77067 17.4615 7.984 17.6162 8.256C17.7709 8.52267 17.8482 8.82133 17.8482 9.152C17.8482 9.52533 17.7415 9.85867 17.5282 10.152C17.3202 10.4453 17.0109 10.6533 16.6002 10.776L17.8962 13H16.3522ZM14.8562 9.912H15.7042C15.9549 9.912 16.1415 9.85067 16.2642 9.728C16.3922 9.60533 16.4562 9.432 16.4562 9.208C16.4562 8.99467 16.3922 8.82667 16.2642 8.704C16.1415 8.58133 15.9549 8.52 15.7042 8.52H14.8562V9.912ZM20.0749 8.48V9.616H21.9069V10.672H20.0749V11.904H22.1469V13H18.7069V7.384H22.1469V8.48H20.0749ZM29.3951 7.384V13H28.0271V9.632L26.7711 13H25.6671L24.4031 9.624V13H23.0351V7.384H24.6511L26.2271 11.272L27.7871 7.384H29.3951ZM31.7468 7.384V13H30.3788V7.384H31.7468ZM34.0822 7.384V10.744C34.0822 11.08 34.1649 11.3387 34.3302 11.52C34.4955 11.7013 34.7382 11.792 35.0582 11.792C35.3782 11.792 35.6235 11.7013 35.7942 11.52C35.9649 11.3387 36.0502 11.08 36.0502 10.744V7.384H37.4182V10.736C37.4182 11.2373 37.3115 11.6613 37.0982 12.008C36.8849 12.3547 36.5969 12.616 36.2342 12.792C35.8769 12.968 35.4769 13.056 35.0342 13.056C34.5915 13.056 34.1942 12.9707 33.8422 12.8C33.4955 12.624 33.2209 12.3627 33.0182 12.016C32.8155 11.664 32.7142 11.2373 32.7142 10.736V7.384H34.0822ZM44.7388 7.384V13H43.3708V9.632L42.1148 13H41.0108L39.7468 9.624V13H38.3788V7.384H39.9948L41.5708 11.272L43.1308 7.384H44.7388Z" fill="white"/>
</svg>
