<svg width="13" height="10" viewBox="0 0 13 10" fill="none" xmlns="http://www.w3.org/2000/svg">
<path d="M4.19869 6.99988L2.79709 4.45588H2.40349V6.99988H0.761887V0.260677H3.51709C4.04829 0.260677 4.49949 0.353477 4.87069 0.539077C5.24829 0.724677 5.52989 0.980677 5.71549 1.30708C5.90109 1.62708 5.99389 1.98548 5.99389 2.38228C5.99389 2.83028 5.86589 3.23028 5.60989 3.58228C5.36029 3.93428 4.98909 4.18388 4.49629 4.33108L6.05149 6.99988H4.19869ZM2.40349 3.29428H3.42109C3.72189 3.29428 3.94589 3.22068 4.09309 3.07348C4.24669 2.92628 4.32349 2.71828 4.32349 2.44948C4.32349 2.19348 4.24669 1.99188 4.09309 1.84468C3.94589 1.69748 3.72189 1.62388 3.42109 1.62388H2.40349V3.29428ZM8.95399 2.40148C9.11399 2.15188 9.33479 1.95028 9.61639 1.79668C9.89799 1.64308 10.2276 1.56628 10.6052 1.56628C11.0468 1.56628 11.4468 1.67828 11.8052 1.90228C12.1636 2.12628 12.4452 2.44628 12.65 2.86228C12.8612 3.27828 12.9668 3.76148 12.9668 4.31188C12.9668 4.86228 12.8612 5.34868 12.65 5.77108C12.4452 6.18708 12.1636 6.51028 11.8052 6.74068C11.4468 6.96468 11.0468 7.07668 10.6052 7.07668C10.234 7.07668 9.90439 6.99988 9.61639 6.84628C9.33479 6.69268 9.11399 6.49428 8.95399 6.25108V9.55348H7.31239V1.64308H8.95399V2.40148ZM11.2964 4.31188C11.2964 3.90228 11.1812 3.58228 10.9508 3.35188C10.7268 3.11508 10.4484 2.99668 10.1156 2.99668C9.78919 2.99668 9.51079 3.11508 9.28039 3.35188C9.05639 3.58868 8.94439 3.91188 8.94439 4.32148C8.94439 4.73108 9.05639 5.05428 9.28039 5.29108C9.51079 5.52788 9.78919 5.64628 10.1156 5.64628C10.442 5.64628 10.7204 5.52788 10.9508 5.29108C11.1812 5.04788 11.2964 4.72148 11.2964 4.31188Z" fill="#EA4B0B"/>
</svg>
