<svg width="25" height="24" viewBox="0 0 25 24" fill="none" xmlns="http://www.w3.org/2000/svg">
<path opacity="0.4" d="M12.1667 21.9999C17.6895 21.9999 22.1667 17.5227 22.1667 11.9999C22.1667 6.47703 17.6895 1.99988 12.1667 1.99988C6.64384 1.99988 2.16669 6.47703 2.16669 11.9999C2.16669 17.5227 6.64384 21.9999 12.1667 21.9999Z" fill="#9499AE" fill-opacity="0.4"/>
<path d="M10.7467 15.5799C10.5467 15.5799 10.3567 15.4999 10.2167 15.3599L7.38669 12.5299C7.09669 12.2399 7.09669 11.7599 7.38669 11.4699C7.67669 11.1799 8.15669 11.1799 8.44669 11.4699L10.7467 13.7699L15.8867 8.62988C16.1767 8.33988 16.6567 8.33988 16.9467 8.62988C17.2367 8.91988 17.2367 9.39988 16.9467 9.68988L11.2767 15.3599C11.1367 15.4999 10.9467 15.5799 10.7467 15.5799Z" fill="#9499AE" fill-opacity="0.4"/>
</svg>
