<svg width="25" height="24" viewBox="0 0 25 24" fill="none" xmlns="http://www.w3.org/2000/svg">
<path opacity="0.4" d="M12.8334 21.9999C18.3562 21.9999 22.8334 17.5227 22.8334 11.9999C22.8334 6.47703 18.3562 1.99988 12.8334 1.99988C7.31053 1.99988 2.83337 6.47703 2.83337 11.9999C2.83337 17.5227 7.31053 21.9999 12.8334 21.9999Z" fill="#EA4B0B"/>
<path d="M11.4134 15.5799C11.2134 15.5799 11.0234 15.4999 10.8834 15.3599L8.05338 12.5299C7.76338 12.2399 7.76338 11.7599 8.05338 11.4699C8.34338 11.1799 8.82338 11.1799 9.11338 11.4699L11.4134 13.7699L16.5534 8.62988C16.8434 8.33988 17.3234 8.33988 17.6134 8.62988C17.9034 8.91988 17.9034 9.39988 17.6134 9.68988L11.9434 15.3599C11.8034 15.4999 11.6134 15.5799 11.4134 15.5799Z" fill="#EA4B0B"/>
</svg>
