<svg width="16" height="16" viewBox="0 0 16 16" fill="none" xmlns="http://www.w3.org/2000/svg">
<path opacity="0.4" d="M14.6666 5.20654V10.7932C14.6666 13.2199 13.22 14.6665 10.7933 14.6665H5.20665C2.77998 14.6665 1.33331 13.2199 1.33331 10.7932V5.20654C1.33331 4.86654 1.35998 4.53987 1.41998 4.23987C1.75998 2.40654 3.11331 1.33987 5.17998 1.33321H10.82C12.8866 1.33987 14.24 2.40654 14.58 4.23987C14.64 4.53987 14.6666 4.86654 14.6666 5.20654Z" fill="white"/>
<path d="M14.6666 5.20654V5.23987H1.33331V5.20654C1.33331 4.86654 1.35998 4.53987 1.41998 4.23987H5.17998V1.33321H6.17998V4.23987H9.81998V1.33321H10.82V4.23987H14.58C14.64 4.53987 14.6666 4.86654 14.6666 5.20654Z" fill="white"/>
<path d="M9.62664 8.47988L8.23998 7.67988C7.72664 7.38655 7.23331 7.34655 6.84664 7.56655C6.45998 7.78655 6.24664 8.23988 6.24664 8.82655V10.4265C6.24664 11.0132 6.45998 11.4665 6.84664 11.6865C7.01331 11.7799 7.19998 11.8265 7.39331 11.8265C7.65998 11.8265 7.94664 11.7399 8.23998 11.5732L9.62664 10.7732C10.14 10.4799 10.42 10.0665 10.42 9.61988C10.42 9.17321 10.1333 8.77988 9.62664 8.47988Z" fill="white"/>
</svg>
